<svg width="60" height="50" viewBox="0 0 60 50" fill="none" xmlns="http://www.w3.org/2000/svg">
<path d="M0 4C0 1.79086 1.79086 0 4 0H56C58.2091 0 60 1.79086 60 4V46C60 48.2091 58.2091 50 56 50H4C1.79086 50 0 48.2091 0 46V4Z" fill="black"/>
<path d="M39.5997 15H20.3997C19.0797 15 18.0117 16.08 18.0117 17.4C18.0117 17.4 18.0234 30.6 18.0117 31.8C18 33 18.5 34.2 20 34.2C21.5 34.2 24 34.2 24 34.2V39L28.788 34.2H39.5997C40.9197 34.2 41.9997 33.12 41.9997 31.8V17.4C41.9997 16.08 40.9197 15 39.5997 15ZM26.3997 25.8H23.9997V23.4H26.3997V25.8ZM31.1997 25.8H28.7997V23.4H31.1997V25.8ZM35.9997 25.8H33.5997V23.4H35.9997V25.8Z" fill="#FFFAF1"/>
<rect x="38" y="12" width="7" height="7" fill="#C14B24"/>
</svg>
