<svg width="5" height="8" viewBox="0 0 5 8" fill="none" xmlns="http://www.w3.org/2000/svg">
<path d="M0.216541 7.53564C0.0974435 7.53564 0 7.4382 0 7.3191V6.7994C0 6.6803 0.0974435 6.58286 0.216541 6.58286H1.62406C1.68902 6.58286 1.73233 6.53955 1.73233 6.47459V3.23729C1.73233 3.17233 1.68902 3.12902 1.62406 3.12902H0.324812C0.205714 3.12902 0.108271 3.03158 0.108271 2.91248V2.38196C0.108271 2.26286 0.205714 2.16541 0.324812 2.16541H2.50105C2.62015 2.16541 2.71759 2.26286 2.71759 2.38196V6.47459C2.71759 6.53955 2.7609 6.58286 2.82586 6.58286H4.16842C4.28752 6.58286 4.38496 6.6803 4.38496 6.7994V7.3191C4.38496 7.4382 4.28752 7.53564 4.16842 7.53564H0.216541ZM1.6782 1.06105V0.173233C1.6782 0.0866167 1.75399 0 1.85143 0H2.58767C2.68511 0 2.7609 0.0866167 2.7609 0.173233V1.06105C2.7609 1.1585 2.68511 1.23429 2.58767 1.23429H1.85143C1.75399 1.23429 1.6782 1.1585 1.6782 1.06105Z" fill="#FFFAF1"/>
</svg>
